<mxfile host="app.diagrams.net" modified="2023-04-05T09:25:07.475Z" agent="Mozilla/5.0 (Windows NT 10.0; WOW64) AppleWebKit/537.36 (KHTML, like Gecko) Chrome/104.0.0.0 Safari/537.36" version="21.1.1" etag="XqG08hRzQbC2YT9nx6-c" type="github">
  <diagram name="第 1 页" id="II8hxcYReyPYffIx9T3f">
    <mxGraphModel>
      <root>
        <mxCell id="0" />
        <mxCell id="1" parent="0" />
      </root>
    </mxGraphModel>
  </diagram>
</mxfile>
